<svg width="57" height="57" viewBox="0 0 57 57" fill="none" xmlns="http://www.w3.org/2000/svg">
<circle cx="28.5" cy="28.5" r="28.5" fill="white" style="fill:white;fill-opacity:1;"/>
<path fill-rule="evenodd" clip-rule="evenodd" d="M42.8359 37.8129V22.4077H15.5234V37.8129C15.5234 39.9399 21.6375 41.6641 29.1797 41.6641C36.7218 41.6641 42.8359 39.9399 42.8359 37.8129Z" fill="#0A3586" style="fill:#0A3586;fill:color(display-p3 0.0392 0.2078 0.5255);fill-opacity:1;"/>
<path d="M47.8672 23.3247H46.4297V37.9963H47.8672V23.3247Z" fill="#ED5144" style="fill:#ED5144;fill:color(display-p3 0.9294 0.3176 0.2667);fill-opacity:1;"/>
<path d="M47.1484 41.6642C48.3393 41.6642 49.3047 40.4326 49.3047 38.9133C49.3047 37.394 48.3393 36.1624 47.1484 36.1624C45.9576 36.1624 44.9922 37.394 44.9922 38.9133C44.9922 40.4326 45.9576 41.6642 47.1484 41.6642Z" fill="#D3D824" style="fill:#D3D824;fill:color(display-p3 0.8275 0.8471 0.1412);fill-opacity:1;"/>
<path fill-rule="evenodd" clip-rule="evenodd" d="M6.71875 22.4004L29.3709 11.4041L51.6406 22.4004L29.3709 31.5289L6.71875 22.4004Z" fill="#325AA6" style="fill:#325AA6;fill:color(display-p3 0.1961 0.3529 0.6510);fill-opacity:1;"/>
</svg>
