<svg width="35" height="34" viewBox="0 0 35 34" fill="none" xmlns="http://www.w3.org/2000/svg">
<path d="M17.0576 14.1932L18.2646 11.0104C16.9621 9.80657 16.2604 8.3169 16.2604 6.74476C16.2604 4.81532 17.3495 3.07277 19.0787 1.84143H2.86528C2.34883 1.84143 1.92773 2.25366 1.92773 2.75943V30.4202C1.92773 30.9259 2.34875 31.3382 2.86528 31.3382H19.1236C19.64 31.3382 20.0611 30.926 20.0611 30.4202V14.5724L18.332 15.353C17.5741 15.6938 16.7713 14.9573 17.0576 14.1932Z" fill="white" style="fill:white;fill-opacity:1;"/>
<path d="M3.80322 6.13448V26.2919H18.1752V15.3914C17.4622 15.5838 16.7773 14.9132 17.0468 14.1875L18.1135 11.3676L18.1022 10.8564C16.9009 9.68004 16.244 8.2453 16.244 6.74458C16.244 6.54119 16.2665 6.33779 16.2833 6.1344C16.2889 6.13448 3.80322 6.13448 3.80322 6.13448Z" fill="#56ACE0" style="fill:#56ACE0;fill:color(display-p3 0.3373 0.6745 0.8784);fill-opacity:1;"/>
<path d="M11.9603 29.5079H10.0403C9.51824 29.5079 9.10278 29.0956 9.10278 28.5899C9.10278 28.0842 9.5238 27.6719 10.0403 27.6719H11.9603C12.4824 27.6719 12.8979 28.0841 12.8979 28.5899C12.8979 29.0956 12.4769 29.5079 11.9603 29.5079Z" fill="#194F82" style="fill:#194F82;fill:color(display-p3 0.0980 0.3098 0.5098);fill-opacity:1;"/>
<path d="M12.8977 3.13879H9.09136C8.56926 3.13879 8.15381 3.55103 8.15381 4.05679C8.15381 4.56256 8.57482 4.97479 9.09136 4.97479H12.8977C13.4198 4.97479 13.8352 4.56256 13.8352 4.05679C13.8352 3.55103 13.4198 3.13879 12.8977 3.13879Z" fill="#194F82" style="fill:#194F82;fill:color(display-p3 0.0980 0.3098 0.5098);fill-opacity:1;"/>
<path d="M25.1926 1.84705C21.3021 1.84705 18.1414 4.04587 18.1414 6.75038C18.1414 7.93223 18.7814 9.09205 19.9322 9.98811C20.2691 10.252 20.3926 10.6917 20.2466 11.0875L19.6179 12.7475L22.3688 11.5108C22.6045 11.4063 22.874 11.3734 23.1323 11.4338C23.806 11.5768 24.4965 11.6482 25.1983 11.6482C29.0888 11.6482 32.2495 9.44935 32.2495 6.74485C32.2439 4.04034 29.0831 1.84705 25.1926 1.84705Z" fill="#56ACE0" style="fill:#56ACE0;fill:color(display-p3 0.3373 0.6745 0.8784);fill-opacity:1;"/>
<path d="M25.1924 0C23.7047 0 22.3012 0.280348 21.0605 0.769618C20.544 0.285875 19.8591 0 19.1293 0H2.86536C1.31027 0 0.0415039 1.24231 0.0415039 2.76496V30.4257C0.0415039 31.9484 1.31027 33.1907 2.86536 33.1907H19.1236C20.6787 33.1907 21.9475 31.9484 21.9475 30.4257V13.7259L22.9411 13.2807C23.671 13.4236 24.4288 13.4951 25.1868 13.4951C30.1103 13.4951 34.1243 10.4662 34.1243 6.74477C34.1243 3.02329 30.1216 0 25.1924 0ZM25.1924 11.6481C24.4851 11.6481 23.7945 11.5767 23.1265 11.4337C22.8738 11.3788 22.6044 11.4063 22.3629 11.5107L19.612 12.7475L20.2408 11.0874C20.3868 10.6916 20.2633 10.2519 19.9264 9.98803C18.7699 9.081 18.1355 7.93215 18.1355 6.7503C18.1355 4.04579 21.3019 1.84697 25.1868 1.84697C29.0773 1.84697 32.238 4.04579 32.238 6.7503C32.2437 9.44375 29.083 11.6481 25.1924 11.6481ZM20.0725 30.4257C20.0725 30.9314 19.6515 31.3437 19.1349 31.3437H2.86536C2.3489 31.3437 1.92781 30.9315 1.92781 30.4257V2.76496C1.92781 2.25928 2.34882 1.84697 2.86536 1.84697H19.0731C17.344 3.0783 16.2548 4.81532 16.2548 6.7503C16.2548 8.32244 16.9621 9.8121 18.259 11.016L17.052 14.1987C16.7657 14.9683 17.5629 15.6993 18.3264 15.3531L20.0555 14.5725V30.4313H20.0724L20.0725 30.4257Z" fill="#194F82" style="fill:#194F82;fill:color(display-p3 0.0980 0.3098 0.5098);fill-opacity:1;"/>
<path d="M28.2463 5.51337H22.1382C21.6161 5.51337 21.2007 5.9256 21.2007 6.43137C21.2007 6.93705 21.6217 7.34936 22.1382 7.34936H28.2463C28.7684 7.34936 29.1838 6.93713 29.1838 6.43137C29.1894 5.92568 28.7684 5.51337 28.2463 5.51337Z" fill="#194F82" style="fill:#194F82;fill:color(display-p3 0.0980 0.3098 0.5098);fill-opacity:1;"/>
<path d="M8.5752 13.605C8.5752 15.1277 9.8945 17.5464 11.0004 17.5464C12.1064 17.5464 13.4257 15.1222 13.4257 13.605C13.4257 12.2967 12.3366 11.2303 11.0004 11.2303C9.66429 11.2303 8.5752 12.2967 8.5752 13.605Z" fill="#FFC10D" style="fill:#FFC10D;fill:color(display-p3 1.0000 0.7569 0.0510);fill-opacity:1;"/>
<path d="M16.8667 22.2903C16.8667 22.1089 16.7376 21.9495 16.5523 21.9C16.5298 21.9 13.605 20.993 13.605 20.993C12.7348 20.7677 12.0892 20.0805 11.9264 19.2339C11.6289 19.3384 11.3201 19.3934 10.9945 19.3934C10.6689 19.3934 10.3545 19.3329 10.0626 19.2339C9.89977 20.0805 9.25983 20.7731 8.38403 20.993C8.38403 20.993 5.46473 21.9055 5.43668 21.9055C5.25701 21.9494 5.12231 22.1089 5.12231 22.2958V23.5051H16.8613V22.2958H16.867V22.2903H16.8667Z" fill="#FFC10D" style="fill:#FFC10D;fill:color(display-p3 1.0000 0.7569 0.0510);fill-opacity:1;"/>
<path d="M17.0297 20.1244C17.0297 20.1244 14.1104 19.2119 14.0824 19.2119C13.9027 19.168 13.7735 19.0085 13.7735 18.8216V17.8046C14.756 16.5349 15.3061 14.7868 15.3061 13.6105C15.3061 11.2853 13.3749 9.39429 11.0002 9.39429C8.62536 9.39429 6.69416 11.2852 6.69416 13.6105C6.69416 14.7923 7.24431 16.5404 8.22675 17.8046V18.8216C8.22675 19.003 8.09762 19.1624 7.91794 19.2119C7.89545 19.2174 4.9706 20.1244 4.9706 20.1244C3.9601 20.3827 3.25269 21.2677 3.25269 22.3012V24.4285C3.25269 24.9397 3.6737 25.3465 4.19024 25.3465H17.8099C18.332 25.3465 18.7474 24.9343 18.7474 24.4285V22.3012C18.7476 21.2678 18.0458 20.3828 17.0297 20.1244ZM5.12796 22.2902C5.12796 22.1088 5.25709 21.9494 5.44233 21.8999C5.46482 21.8944 8.38967 20.9875 8.38967 20.9875C9.25983 20.7621 9.9055 20.075 10.0682 19.2284C10.3658 19.3328 10.6746 19.3878 11.0002 19.3878C11.3257 19.3878 11.6402 19.3274 11.9321 19.2284C12.0949 20.075 12.7348 20.7676 13.6106 20.9875C13.6106 20.9875 16.5299 21.8999 16.558 21.8999C16.7377 21.9439 16.8723 22.1033 16.8723 22.2902V23.4995H5.12796V22.2902ZM13.4143 13.605C13.4143 15.1277 12.095 17.5464 10.989 17.5464C9.8831 17.5464 8.56379 15.1223 8.56379 13.605C8.56379 12.2967 9.65288 11.2304 10.989 11.2304C12.3364 11.2358 13.4143 12.2967 13.4143 13.605Z" fill="#194F82" style="fill:#194F82;fill:color(display-p3 0.0980 0.3098 0.5098);fill-opacity:1;"/>
</svg>
