<svg width="34" height="34" viewBox="0 0 34 34" fill="none" xmlns="http://www.w3.org/2000/svg">
<g clip-path="url(#clip0_393_1707)">
<path d="M29.8357 6.699C27.7662 4.12343 24.9373 2.18404 21.6892 1.22021H12.3109C10.0369 1.8949 7.96863 3.04778 6.22241 4.56211L3.32689 7.83747C1.56852 10.4564 0.54248 13.6084 0.54248 17C0.54248 20.0222 1.35715 22.8542 2.77884 25.2884L12.0186 32.6901C13.59 33.1886 15.2636 33.4575 16.9999 33.4575C18.7177 33.4575 20.374 33.1943 21.9307 32.7061L29.096 28.1596C30.732 26.3873 31.9833 24.2545 32.7176 21.8939L29.8357 6.699Z" fill="#51D1F5" style="fill:#51D1F5;fill:color(display-p3 0.3176 0.8196 0.9608);fill-opacity:1;"/>
<path d="M20.2234 11.0456C19.9238 11.0456 19.6809 10.8027 19.6809 10.5031V9.85205C19.6809 9.55242 19.9238 9.30951 20.2234 9.30951C20.5231 9.30951 20.766 9.55242 20.766 9.85205V10.5031C20.766 10.8027 20.5231 11.0456 20.2234 11.0456Z" fill="#38A287" style="fill:#38A287;fill:color(display-p3 0.2196 0.6353 0.5294);fill-opacity:1;"/>
<path d="M8.72003 18.6547C8.42034 18.6547 8.17749 18.4118 8.17749 18.1121V17.8977C8.17749 17.5981 8.42034 17.3552 8.72003 17.3552C9.01972 17.3552 9.26257 17.5981 9.26257 17.8977V18.1121C9.26257 18.4118 9.01972 18.6547 8.72003 18.6547Z" fill="#38A287" style="fill:#38A287;fill:color(display-p3 0.2196 0.6353 0.5294);fill-opacity:1;"/>
<path d="M11.5209 24.2789L9.90622 23.5555V23.0976C9.90622 21.1291 8.31114 19.895 6.34272 19.895C6.01913 19.895 5.70609 19.9389 5.40806 20.0198V18.4333C5.98984 18.2138 6.40422 17.6536 6.40422 16.9948V16.0783H10.5421V16.364C10.5421 16.6637 10.6402 16.9066 10.9399 16.9066C11.2396 16.9066 11.3378 16.6637 11.3378 16.364V8.26911C12.0669 8.00003 12.5871 7.29832 12.5871 6.47508C12.5871 5.41889 11.7306 4.56238 10.6744 4.56238H6.22266C5.11872 5.51956 4.14434 6.62057 3.32688 7.83734V16.9949C3.32688 17.6536 3.74126 18.2138 4.32304 18.4334V20.5231C3.39063 21.1659 2.7793 21.8793 2.7793 23.0975V25.288C4.81638 28.7754 8.31698 31.447 12.2356 32.6899V29.0613C13.3316 28.8313 13.9378 27.8597 13.9378 26.6958C13.9377 25.3611 12.8555 24.2789 11.5209 24.2789Z" fill="#38A287" style="fill:#38A287;fill:color(display-p3 0.2196 0.6353 0.5294);fill-opacity:1;"/>
<path d="M21.6892 1.22042C21.0989 3.25318 19.2231 4.73829 17.0001 4.73829C14.7771 4.73829 12.9013 3.25311 12.311 1.22035C13.7969 0.779081 15.371 0.542542 17.0001 0.542542C18.6292 0.542542 20.2034 0.779081 21.6892 1.22042Z" fill="#A1EBFF" style="fill:#A1EBFF;fill:color(display-p3 0.6314 0.9216 1.0000);fill-opacity:1;"/>
<path d="M29.8348 7.13361H25.3142C25.0146 7.13361 24.7717 6.94249 24.7717 7.24211C24.7717 7.54174 25.0146 7.78465 25.3142 7.78465H26.761V9.58214H23.6872C22.901 9.71595 22.2578 10.477 22.2578 11.2742V12.9163H18.5496V14.7733C18.5496 15.7969 19.3793 16.6266 20.4036 16.6266C21.0851 16.6266 21.6812 16.2592 22.0031 15.7108H27.3758C27.8764 16.8328 29.0014 17.6156 30.3093 17.6156V19.5196H23.1048C22.7598 18.7296 21.9721 18.1769 21.0548 18.1769C20.0029 18.1769 19.1218 18.9032 18.8831 19.8819C17.8261 20.4252 17.1028 21.5262 17.1028 22.7965C17.1028 24.6058 18.5698 26.0728 20.3791 26.0728H21.3159L21.2198 28.7913C21.2198 29.6008 22.1362 31.4439 23.3177 32.0466C25.4879 31.3232 27.1683 30.2463 29.0953 28.1587V21.9486H32.6996C33.1916 20.3866 33.4574 18.7244 33.4574 16.9998C33.4575 13.101 32.1007 9.95341 29.8348 7.13361Z" fill="#38A287" style="fill:#38A287;fill:color(display-p3 0.2196 0.6353 0.5294);fill-opacity:1;"/>
<path d="M29.0208 4.97921C25.8099 1.76827 21.5409 0 17 0C12.4591 0 8.19008 1.76827 4.97921 4.97921C1.76833 8.19015 0 12.4591 0 17C0 21.5409 1.76827 25.81 4.97921 29.0208C8.19008 32.2317 12.4592 34 17 34C21.5408 34 25.8099 32.2317 29.0208 29.0208C32.2317 25.81 34 21.5409 34 17C34 12.4591 32.2317 8.19008 29.0208 4.97921ZM17 32.9149C8.22448 32.9149 1.08508 25.7756 1.08508 17C1.08508 8.22455 8.22441 1.08508 17 1.08508C25.7756 1.08508 32.9149 8.22455 32.9149 17C32.9149 25.7755 25.7755 32.9149 17 32.9149Z" fill="black" style="fill:black;fill-opacity:1;"/>
<path d="M20.2234 9.30945C19.9238 9.30945 19.6809 9.55236 19.6809 9.85199V10.503C19.6809 10.8027 19.9238 11.0456 20.2234 11.0456C20.5231 11.0456 20.766 10.8027 20.766 10.503V9.85199C20.766 9.55236 20.5231 9.30945 20.2234 9.30945Z" fill="black" style="fill:black;fill-opacity:1;"/>
<path d="M30.4036 21.406H29.0953C28.7956 21.406 28.5527 21.6489 28.5527 21.9485V24.5976C28.5527 24.8972 28.7956 25.1402 29.0953 25.1402C29.395 25.1402 29.6378 24.8972 29.6378 24.5976V22.4911H30.4036C30.7033 22.4911 30.9461 22.2482 30.9461 21.9485C30.9461 21.6489 30.7033 21.406 30.4036 21.406Z" fill="black" style="fill:black;fill-opacity:1;"/>
<path d="M11.5206 23.7361H10.4482C10.4031 21.5107 8.5789 19.7145 6.34294 19.7145C6.02345 19.7145 5.71048 19.7509 5.40813 19.8205V19.004C6.29326 18.7646 6.94657 17.9549 6.94657 16.9951V16.3607C7.75918 16.3804 9.1399 16.3653 10.4334 16.3421V16.5126C10.4334 16.8123 10.6763 17.0552 10.976 17.0552C11.2757 17.0552 11.5185 16.8123 11.5185 16.5126V15.7904C11.5185 15.7898 11.5185 15.7891 11.5185 15.7886V8.61395C12.2788 8.18357 12.7679 7.36631 12.7679 6.47514C12.7679 5.12132 11.6664 4.01984 10.3126 4.01984H9.97522C9.67553 4.01984 9.43269 4.26275 9.43269 4.56238C9.43269 4.862 9.67553 5.10491 9.97522 5.10491H10.3126C11.0681 5.10491 11.6828 5.71957 11.6828 6.47514C11.6828 7.0461 11.3231 7.56281 10.7877 7.7607C10.5748 7.83946 10.4334 8.04253 10.4334 8.26957V15.2568C8.63143 15.288 6.7951 15.2971 6.51997 15.2593C6.36312 15.225 6.19883 15.2617 6.07153 15.3605C5.93892 15.4633 5.86136 15.6216 5.86136 15.7893V16.9952C5.86136 17.5443 5.41458 17.9912 4.86546 17.9912C4.31628 17.9912 3.8695 17.5444 3.8695 16.9952V12.8511C3.8695 12.5514 3.62665 12.3085 3.32696 12.3085C3.02727 12.3085 2.78442 12.5514 2.78442 12.8511V16.9952C2.78442 17.9551 3.43773 18.7647 4.32299 19.0041V20.2422C3.84088 20.5149 3.41256 20.8873 3.06512 21.347C2.8845 21.5859 2.93178 21.9263 3.17084 22.1069C3.40984 22.2875 3.75017 22.2402 3.93086 22.0012C4.23447 21.5994 4.62235 21.2889 5.0603 21.0838C5.08394 21.0747 5.10698 21.0643 5.12883 21.0521C5.50496 20.8875 5.91621 20.7996 6.34287 20.7996C8.00867 20.7996 9.36395 22.1549 9.36395 23.8207V24.2787C9.36395 24.5783 9.6068 24.8213 9.90649 24.8213H11.5206C12.5542 24.8213 13.395 25.6622 13.395 26.6958C13.395 27.578 12.7694 28.3495 11.9074 28.5301C11.6562 28.5828 11.4761 28.8044 11.4761 29.0611V30.3914C11.4761 30.691 11.719 30.934 12.0187 30.934C12.3184 30.934 12.5612 30.691 12.5612 30.3914V29.4664C13.6954 29.0391 14.48 27.9367 14.48 26.6957C14.4802 25.0638 13.1525 23.7361 11.5206 23.7361Z" fill="black" style="fill:black;fill-opacity:1;"/>
<path d="M17 5.78723C18.7077 5.78723 20.3136 4.95164 21.2959 3.552C21.468 3.3067 21.4086 2.96836 21.1633 2.79623C20.9179 2.62404 20.5797 2.68354 20.4075 2.92878C19.6283 4.03916 18.3545 4.70216 17 4.70216C15.6456 4.70216 14.3717 4.03922 13.5924 2.92884C13.4204 2.68361 13.0821 2.62417 12.8366 2.79636C12.5913 2.96849 12.5321 3.3069 12.7042 3.55213C13.6864 4.95171 15.2924 5.78723 17 5.78723Z" fill="black" style="fill:black;fill-opacity:1;"/>
<path d="M8.17749 17.8977V18.1121C8.17749 18.4118 8.42034 18.6547 8.72003 18.6547C9.01972 18.6547 9.26257 18.4118 9.26257 18.1121V17.8977C9.26257 17.5981 9.01972 17.3552 8.72003 17.3552C8.42034 17.3552 8.17749 17.5981 8.17749 17.8977Z" fill="black" style="fill:black;fill-opacity:1;"/>
<path d="M30.8519 19.52V17.3264C30.8519 17.0267 30.609 16.7838 30.3093 16.7838C29.2572 16.7838 28.3001 16.1622 27.8709 15.2002C27.7836 15.0046 27.5895 14.8788 27.3754 14.8788L22.003 14.8789C21.8107 14.8789 21.6326 14.9808 21.5352 15.1466C21.3003 15.5466 20.8666 15.7951 20.4034 15.7951C19.6803 15.7951 19.092 15.2068 19.092 14.4837V13.6039H22.2573C22.557 13.6039 22.7999 13.361 22.7999 13.0614V11.2747C22.7999 10.7599 23.2337 10.2334 23.7378 10.1251H26.7608C27.0605 10.1251 27.3033 9.88223 27.3033 9.5826V7.78479H27.4264C27.7261 7.78479 27.9689 7.54187 27.9689 7.24225C27.9689 6.94262 27.7261 6.69971 27.4264 6.69971H25.314C25.0143 6.69971 24.7715 6.94262 24.7715 7.24225C24.7715 7.54187 25.0143 7.78479 25.314 7.78479H26.2182V9.04006H23.6869C23.6565 9.04006 23.6262 9.04259 23.5963 9.04763C22.5413 9.2264 21.7148 10.2046 21.7148 11.2747V12.5188H18.5495C18.2498 12.5188 18.0069 12.7617 18.0069 13.0614V14.4837C18.0069 15.8051 19.082 16.8802 20.4034 16.8802C21.1407 16.8802 21.837 16.5357 22.2879 15.964L27.0422 15.9638C27.6148 16.9743 28.6248 17.6623 29.7668 17.8295V18.9774H23.4338C22.9354 18.1513 22.0368 17.6344 21.0548 17.6344C19.853 17.6344 18.8046 18.3964 18.425 19.5155C17.2687 20.2034 16.5601 21.4396 16.5601 22.7965C16.5601 24.9024 18.2733 26.6157 20.3792 26.6157H20.7729V28.2038C20.7729 29.0904 21.0172 29.9513 21.4794 30.6936C21.5822 30.8588 21.7593 30.9495 21.9405 30.9495C22.0384 30.9495 22.1375 30.923 22.2268 30.8675C22.4812 30.7091 22.5589 30.3745 22.4006 30.1201C22.0457 29.5502 21.8581 28.8875 21.8581 28.2039V26.0731C21.8581 25.7734 21.6153 25.5305 21.3156 25.5305H20.3793C18.8717 25.5305 17.6453 24.3041 17.6453 22.7965C17.6453 21.7677 18.2146 20.8357 19.1314 20.3642C19.2714 20.2922 19.3732 20.163 19.4103 20.0101C19.5955 19.2502 20.2716 18.7194 21.0548 18.7194C21.7284 18.7194 22.3378 19.1187 22.6073 19.7368C22.6935 19.9345 22.8889 20.0624 23.1047 20.0624H30.3093C30.609 20.0625 30.8519 19.8196 30.8519 19.52Z" fill="black" style="fill:black;fill-opacity:1;"/>
</g>
<defs>
<clipPath id="clip0_393_1707">
<rect width="34" height="34" fill="white" style="fill:white;fill-opacity:1;"/>
</clipPath>
</defs>
</svg>
