<svg width="34" height="34" viewBox="0 0 34 34" fill="none" xmlns="http://www.w3.org/2000/svg">
<g clip-path="url(#clip0_394_1875)">
<path d="M29.3652 23.4148H16.1631V30.7372H27.2674L29.3652 27.1107V23.4148Z" fill="#7FA339" style="fill:#7FA339;fill:color(display-p3 0.4980 0.6392 0.2235);fill-opacity:1;"/>
<path d="M6.27987 10.0579L0.687256 19.7884L2.78583 23.4148L5.68566 25.7851L12.6154 13.7292L6.27987 10.0579Z" fill="#1E3D2E" style="fill:#1E3D2E;fill:color(display-p3 0.1176 0.2392 0.1804);fill-opacity:1;"/>
<path d="M23.4594 2.14166H17.1448V5.8498L22.6868 15.4921L29.0232 11.8208L23.4594 2.14166Z" fill="#4F7034" style="fill:#4F7034;fill:color(display-p3 0.3098 0.4392 0.2039);fill-opacity:1;"/>
<path d="M19.7685 26.712L15.8279 22.3274C15.6282 22.1052 15.2872 22.088 15.0664 22.289C14.8456 22.4901 14.8284 22.8331 15.0282 23.0554L15.3512 23.4148H2.78589L6.99546 30.7371H15.3512L15.0282 31.0965C14.8285 31.3188 14.8456 31.6618 15.0665 31.8629C15.1696 31.9568 15.299 32.003 15.428 32.003C15.5751 32.003 15.7217 31.9429 15.828 31.8244L19.7687 27.4399C19.9543 27.2333 19.9543 26.9187 19.7685 26.712Z" fill="#4F7034" style="fill:#4F7034;fill:color(display-p3 0.3098 0.4392 0.2039);fill-opacity:1;"/>
<path d="M29.3871 12.4544L29.8605 12.5561C30.1536 12.6191 30.442 12.4325 30.5049 12.1397C30.5679 11.8467 30.3814 11.5582 30.0885 11.4953L24.3187 10.2554C24.0464 10.1969 23.7739 10.3541 23.6883 10.6194L21.8708 16.2557C21.7788 16.5409 21.9355 16.8467 22.2207 16.9387C22.276 16.9565 22.3321 16.965 22.3873 16.965C22.6165 16.965 22.8295 16.8187 22.9036 16.5888L23.0523 16.128L29.3652 27.1109L33.6022 19.7886L29.3871 12.4544Z" fill="#DDD244" style="fill:#DDD244;fill:color(display-p3 0.8667 0.8235 0.2667);fill-opacity:1;"/>
<path d="M13.545 12.8153L13.0781 12.9155L19.2758 2.14166H10.9625L6.84323 9.30239L6.697 8.8493C6.60649 8.56887 6.3058 8.41467 6.02484 8.50525C5.74414 8.5957 5.58994 8.89639 5.68045 9.17689L7.46944 14.7203C7.54182 14.9445 7.75007 15.0902 7.97732 15.0902C8.0145 15.0902 8.05216 15.0863 8.08988 15.0782L13.7693 13.8588C14.0577 13.7969 14.2412 13.5132 14.1793 13.225C14.1173 12.9368 13.8332 12.7532 13.545 12.8153Z" fill="#7FA339" style="fill:#7FA339;fill:color(display-p3 0.4980 0.6392 0.2235);fill-opacity:1;"/>
<path d="M33.9278 19.498L29.9558 12.5877L30.3025 12.6622C30.5956 12.7252 30.884 12.5387 30.9469 12.2458C31.0099 11.9528 30.8234 11.6644 30.5305 11.6014L24.1739 10.2355C23.9017 10.1771 23.6291 10.3342 23.5435 10.5995L21.5482 16.7873C21.4562 17.0725 21.6128 17.3783 21.8981 17.4703C21.9534 17.4881 22.0095 17.4966 22.0647 17.4966C22.2938 17.4966 22.5068 17.3503 22.581 17.1204L22.6827 16.8053L26.1586 22.8526H18.9439C18.6443 22.8526 18.4014 23.0955 18.4014 23.3951C18.4014 23.6947 18.6443 23.9376 18.9439 23.9376H26.7824L28.5943 27.0899L26.8093 30.1747H18.944C18.6443 30.1747 18.4014 30.4177 18.4014 30.7173C18.4014 31.0169 18.6443 31.2598 18.944 31.2598H27.1224C27.316 31.2598 27.495 31.1566 27.592 30.9889L33.9272 20.0402C34.0241 19.8725 34.0244 19.6659 33.9278 19.498ZM29.2223 26.0047L23.1326 15.4102L24.4258 11.3995L28.5279 12.281L32.8312 19.7676L29.2223 26.0047Z" fill="black" style="fill:black;fill-opacity:1;"/>
<path d="M19.7314 26.6921L15.3703 21.8702C15.1693 21.648 14.8261 21.6308 14.6039 21.8318C14.3817 22.0329 14.3645 22.3759 14.5654 22.5982L14.7955 22.8526H7.84132L11.4856 16.5124C11.6349 16.2526 11.5454 15.9209 11.2856 15.7717C11.026 15.6225 10.6942 15.7119 10.5449 15.9717L6.58969 22.8524H2.95387L1.16887 19.7675L5.14508 12.8501C5.29437 12.5903 5.20485 12.2586 4.94507 12.1093C4.68529 11.96 4.35365 12.0495 4.20431 12.3093L0.0721677 19.498C-0.0243208 19.6659 -0.0240552 19.8725 0.0729646 20.0401L6.40813 30.9889C6.50515 31.1565 6.68412 31.2598 6.87776 31.2598H14.7955L14.5655 31.5141C14.3645 31.7363 14.3817 32.0794 14.604 32.2805C14.7078 32.3744 14.838 32.4207 14.9677 32.4207C15.1157 32.4207 15.2632 32.3605 15.3703 32.242L19.7314 27.42C19.9183 27.2134 19.9183 26.8987 19.7314 26.6921ZM15.7769 30.1746H7.19053L3.58168 23.9375H6.90173C6.9022 23.9375 6.90266 23.9375 6.90313 23.9375C6.90359 23.9375 6.90406 23.9375 6.90452 23.9375H15.7769L18.5974 27.056L15.7769 30.1746Z" fill="black" style="fill:black;fill-opacity:1;"/>
<path d="M7.1367 14.9111C7.21021 15.1391 7.42179 15.2872 7.65268 15.2872C7.69047 15.2872 7.72878 15.2832 7.76703 15.275L14.1235 13.9091C14.4165 13.8461 14.6029 13.5577 14.54 13.2647C14.477 12.9717 14.1883 12.7852 13.8955 12.8482L13.5488 12.9227L16.9999 6.91875L20.6112 13.2014C20.7116 13.376 20.8942 13.4737 21.0821 13.4737C21.1738 13.4737 21.2668 13.4503 21.352 13.4014C21.6118 13.2521 21.7013 12.9204 21.552 12.6606L17.6257 5.83008L19.4453 2.66462H23.0004L26.9518 9.53908C27.1011 9.79892 27.4329 9.88844 27.6926 9.73909C27.9524 9.58981 28.042 9.25811 27.8926 8.99833L23.7848 1.85154C23.688 1.68313 23.5087 1.57941 23.3144 1.57941H10.6858C10.4916 1.57941 10.3121 1.6832 10.2154 1.85154L6.27574 8.70534L6.17408 8.39011C6.08204 8.10496 5.77657 7.94818 5.49115 8.04028C5.206 8.13226 5.04935 8.43799 5.14132 8.72321L7.1367 14.9111ZM10.9997 2.66455H18.1937L12.1209 13.2295L8.01884 14.111L6.72551 10.1004L10.9997 2.66455Z" fill="black" style="fill:black;fill-opacity:1;"/>
</g>
<defs>
<clipPath id="clip0_394_1875">
<rect width="34" height="34" fill="white" style="fill:white;fill-opacity:1;"/>
</clipPath>
</defs>
</svg>
