<svg width="32" height="32" viewBox="0 0 32 32" fill="none" xmlns="http://www.w3.org/2000/svg">
<path d="M14.6086 20.174H11.8259V28.5218H14.6086V20.174Z" fill="#51D1F5" style="fill:#51D1F5;fill:color(display-p3 0.3176 0.8196 0.9608);fill-opacity:1;"/>
<path d="M17.3911 20.174V28.5218H20.1737V27.1305V22.9565V20.174H17.3911Z" fill="#51D1F5" style="fill:#51D1F5;fill:color(display-p3 0.3176 0.8196 0.9608);fill-opacity:1;"/>
<path d="M22.2608 13.2174H21.5652V9.04346H22.2608C23.4134 9.04346 24.3477 9.97777 24.3477 11.1304C24.3477 12.2831 23.4134 13.2174 22.2608 13.2174Z" fill="#51D1F5" style="fill:#51D1F5;fill:color(display-p3 0.3176 0.8196 0.9608);fill-opacity:1;"/>
<path d="M9.73904 13.2174H10.4347V9.04346H9.73904C8.58641 9.04346 7.6521 9.97777 7.6521 11.1304C7.6521 12.2831 8.58641 13.2174 9.73904 13.2174Z" fill="#51D1F5" style="fill:#51D1F5;fill:color(display-p3 0.3176 0.8196 0.9608);fill-opacity:1;"/>
<path d="M18.7826 6.26087H13.2174C11.6807 6.26087 10.4348 5.01506 10.4348 3.47824C10.4348 1.94149 11.6806 0.695618 13.2174 0.695618H18.7826C20.3194 0.695618 21.5653 1.94143 21.5653 3.47824C21.5652 5.01499 20.3194 6.26087 18.7826 6.26087Z" fill="#7FA339" style="fill:#7FA339;fill:color(display-p3 0.4980 0.6392 0.2235);fill-opacity:1;"/>
<path d="M21.5653 9.04352H10.4348V20.174H21.5653V9.04352Z" fill="#7FA339" style="fill:#7FA339;fill:color(display-p3 0.4980 0.6392 0.2235);fill-opacity:1;"/>
<path d="M16 31.3044H10.4348V29.9217C10.4348 29.1485 11.0616 28.5217 11.8348 28.5217H14.6C15.3732 28.5217 16 29.1485 16 29.9217V31.3044Z" fill="#7FA339" style="fill:#7FA339;fill:color(display-p3 0.4980 0.6392 0.2235);fill-opacity:1;"/>
<path d="M21.5652 31.3044H16V29.9217C16 29.1485 16.6268 28.5217 17.4 28.5217H20.1652C20.9384 28.5217 21.5652 29.1485 21.5652 29.9217V31.3044Z" fill="#7FA339" style="fill:#7FA339;fill:color(display-p3 0.4980 0.6392 0.2235);fill-opacity:1;"/>
<path d="M19.4782 3.47828C19.4782 3.09415 19.1667 2.78265 18.7825 2.78265H13.2174C12.8332 2.78265 12.5217 3.09415 12.5217 3.47828C12.5217 3.8624 12.8332 4.1739 13.2174 4.1739H18.7825C19.1667 4.17397 19.4782 3.8624 19.4782 3.47828Z" fill="black" style="fill:black;fill-opacity:1;"/>
<path d="M20.7519 24.6573C20.7269 24.619 20.6977 24.5835 20.6656 24.5515C20.5043 24.3902 20.2636 24.3157 20.0381 24.3617C19.9936 24.3699 19.9498 24.3838 19.9081 24.4012C19.8656 24.4186 19.8254 24.4402 19.7878 24.4652C19.7495 24.4903 19.714 24.5195 19.682 24.5515C19.65 24.5835 19.6208 24.619 19.5951 24.6573C19.57 24.6948 19.5491 24.7351 19.5318 24.7775C19.5144 24.8193 19.5005 24.8631 19.4922 24.9076C19.4831 24.9521 19.4783 24.998 19.4783 25.0432C19.4783 25.0883 19.4831 25.1343 19.4922 25.1788C19.5005 25.2233 19.5144 25.2672 19.5318 25.3088C19.5491 25.3513 19.5708 25.3917 19.5958 25.4292C19.6208 25.4675 19.65 25.503 19.682 25.535C19.714 25.567 19.7495 25.5963 19.7878 25.6212C19.8254 25.6463 19.8656 25.6678 19.9081 25.6852C19.9499 25.7026 19.9936 25.7165 20.0381 25.7248C20.0826 25.7339 20.1286 25.7388 20.1738 25.7388C20.2189 25.7388 20.2649 25.7339 20.3094 25.7248C20.3539 25.7165 20.3978 25.7026 20.4394 25.6852C20.4818 25.6678 20.5222 25.6463 20.5598 25.6212C20.598 25.5962 20.6335 25.567 20.6655 25.535C20.6976 25.503 20.7268 25.4675 20.7518 25.4292C20.7768 25.3917 20.7984 25.3513 20.8158 25.3088C20.8331 25.2671 20.8471 25.2233 20.8554 25.1788C20.8645 25.1343 20.8693 25.0883 20.8693 25.0432C20.8693 24.998 20.8645 24.952 20.8554 24.9076C20.8463 24.8632 20.8331 24.8192 20.8158 24.7775C20.7985 24.7352 20.777 24.6949 20.7519 24.6573Z" fill="black" style="fill:black;fill-opacity:1;"/>
<path d="M28.5217 16.6956H27.8261V14.6087C27.8261 14.4507 27.7724 14.2974 27.6737 14.1741L25.031 10.8707C24.8995 9.45781 23.7075 8.34781 22.2609 8.34781H21.5653H18.087V6.9565H18.7827C20.7006 6.9565 22.2609 5.39612 22.2609 3.47825C22.2609 1.56037 20.7005 0 18.7826 0H13.2174C11.2995 0 9.73915 1.56037 9.73915 3.47825C9.73915 5.39612 11.2995 6.9565 13.2174 6.9565H13.913V8.34781H10.4348H9.73915C8.2924 8.34781 7.10053 9.45781 6.96909 10.8707L4.3264 14.1741C4.22778 14.2974 4.17396 14.4507 4.17396 14.6087V16.6956H3.47834C3.09415 16.6956 2.78271 17.0071 2.78271 17.3912V21.5652C2.78271 21.9493 3.09415 22.2608 3.47834 22.2608H4.86965C5.25384 22.2608 5.56528 21.9493 5.56528 21.5652C5.56528 21.1811 5.25384 20.8696 4.86965 20.8696H4.17403V18.0869H4.86965H5.56528V18.7826C5.56528 19.1667 5.87671 19.4782 6.2609 19.4782C6.64509 19.4782 6.95653 19.1667 6.95653 18.7826V17.3912C6.95653 17.0071 6.64509 16.6956 6.2609 16.6956H5.56528V14.8527L7.37321 12.5928C7.86434 13.3844 8.74103 13.913 9.73921 13.913V20.1739C9.73921 20.558 10.0507 20.8695 10.4348 20.8695H11.1305V27.9481C10.3205 28.2381 9.73915 29.0132 9.73915 29.9217V31.3043C9.73915 31.6884 10.0506 31.9999 10.4348 31.9999H16H21.5652C21.9493 31.9999 22.2608 31.6884 22.2608 31.3043V29.9217C22.2608 29.0132 21.6796 28.2381 20.8695 27.9481V27.1304C20.8695 26.7462 20.558 26.4347 20.1738 26.4347C19.7897 26.4347 19.4782 26.7462 19.4782 27.1304V27.826H18.0869V20.8696H19.4782V22.9565C19.4782 23.3406 19.7897 23.6521 20.1738 23.6521C20.558 23.6521 20.8695 23.3406 20.8695 22.9565V20.8696H21.5651C21.9492 20.8696 22.2607 20.5581 22.2607 20.1739V13.9131C23.2588 13.9131 24.1356 13.3844 24.6267 12.5928L26.4347 14.8527V16.6957H25.739C25.3549 16.6957 25.0434 17.0072 25.0434 17.3913V18.7826C25.0434 19.1667 25.3549 19.4782 25.739 19.4782C26.1232 19.4782 26.4347 19.1667 26.4347 18.7826V18.087H27.1303H27.8259V20.8696H27.1303C26.7462 20.8696 26.4347 21.1811 26.4347 21.5652C26.4347 21.9494 26.7462 22.2609 27.1303 22.2609H28.5216C28.9057 22.2609 29.2172 21.9494 29.2172 21.5652V17.3913C29.2173 17.0072 28.9058 16.6956 28.5217 16.6956ZM9.73909 12.5217C8.9719 12.5217 8.34778 11.8976 8.34778 11.1304C8.34778 10.3632 8.9719 9.73912 9.73909 9.73912V12.5217ZM13.2173 5.56519C12.0666 5.56519 11.1304 4.629 11.1304 3.47825C11.1304 2.3275 12.0666 1.39131 13.2173 1.39131H18.7825C19.9333 1.39131 20.8695 2.3275 20.8695 3.47825C20.8695 4.629 19.9333 5.56519 18.7825 5.56519H17.3912H14.6086H13.2173ZM16.6956 6.9565V8.34781H15.3043V6.9565H16.6956ZM15.3043 30.6087H11.1304V29.9217C11.1304 29.5334 11.4463 29.2174 11.8348 29.2174H14.6C14.9883 29.2174 15.3043 29.5333 15.3043 29.9217V30.6087ZM12.5217 27.8261V20.8696H13.913V27.8261H12.5217ZM20.1652 29.2174C20.5535 29.2174 20.8695 29.5333 20.8695 29.9217V30.6087H16.6956V29.9217C16.6956 29.5334 17.0115 29.2174 17.4 29.2174H20.1652ZM16.6956 27.9484C16.4365 28.0412 16.2007 28.1833 16 28.3639C15.7992 28.1833 15.5635 28.0409 15.3043 27.9481V20.8696H16.6957V27.9484H16.6956ZM20.8695 13.2174V19.4782H20.1739H17.3913H14.6087H11.826H11.1304V13.2174V9.73912H14.6087H17.3913H20.8695V13.2174ZM22.2608 12.5217V9.73912C23.028 9.73912 23.6522 10.3632 23.6522 11.1304C23.6522 11.8976 23.028 12.5217 22.2608 12.5217Z" fill="black" style="fill:black;fill-opacity:1;"/>
<path d="M15.3044 11.8261C15.3044 12.2102 15.6159 12.5217 16.0001 12.5217H18.7827C19.1668 12.5217 19.4783 12.2102 19.4783 11.8261C19.4783 11.4419 19.1668 11.1304 18.7827 11.1304H16.0001C15.6159 11.1304 15.3044 11.4419 15.3044 11.8261Z" fill="black" style="fill:black;fill-opacity:1;"/>
</svg>
